<svg width="2582" height="995" viewBox="0 0 2582 995" fill="none" xmlns="http://www.w3.org/2000/svg">
<g clip-path="url(#clip0)">
<path d="M624.5 272.638C670.191 272.638 695.809 272.638 741.5 272.638C741.5 218.341 741.5 187.899 741.5 133.602M308 272.638H124.5V133.602M515 207.301C557.762 207.301 581.738 207.301 624.5 207.301V158.168M183 435.718H15M183 611.343H58V697.065M648 746.198H741.5V856.487M292.5 729.995H183V856.487" stroke="#FFD500" stroke-width="7" stroke-linecap="round" stroke-linejoin="round"/>
<g filter="url(#filter0_d)">
<path d="M967.22 552.404V311.204L1046.01 231.608H1257.46L1337.06 312.008V377.936H1246.21V340.952L1214.05 309.596H1090.23L1058.07 340.952V522.656L1090.23 554.012H1214.05L1246.21 522.656V485.672H1337.06V551.6L1257.46 632H1046.01L967.22 552.404ZM1417.3 231.608H1501.72V301.556L1570.87 231.608H1670.56L1727.65 289.496L1785.53 231.608H1920.61L2002.62 314.42V632H1911.76V340.952L1880.41 309.596H1805.63L1759 356.228V632H1670.56V340.148L1640.01 309.596H1585.34L1508.15 387.584V632H1417.3V231.608ZM2082.64 557.228V508.184H2171.89V533.912L2194.4 557.228H2331.08L2353.59 533.912V490.496L2330.28 467.18H2157.42L2085.86 394.82V304.772L2159.02 231.608H2360.83L2434.8 306.38V355.424H2345.55V329.696L2323.04 306.38H2197.62L2175.1 329.696V369.896L2198.42 393.212H2370.48L2442.84 466.376V558.836L2369.67 632H2156.61L2082.64 557.228Z" fill="#FFD500"/>
</g>
<path d="M443.26 743.063L527.055 742.075L529.184 939.387L443.26 902.484L443.26 743.063Z" fill="#FFD500"/>
<g filter="url(#filter1_d)">
<path d="M471.504 810.267C410.232 806.127 356.826 793.707 311.286 773.007C265.746 752.307 230.97 726.225 206.958 694.761C182.946 663.297 165.558 634.317 154.794 607.821C144.03 581.325 137.406 555.243 134.922 529.575C132.438 503.079 133.68 469.131 138.648 427.731C144.444 392.955 156.45 358.593 174.666 324.645C193.71 290.697 218.55 260.475 249.186 233.979C280.65 206.655 318.324 185.955 362.208 171.879C406.092 156.975 452.874 152.421 502.554 158.217C550.578 164.013 591.564 177.261 625.512 197.961C659.46 217.833 688.44 243.501 712.452 274.965C733.152 301.461 745.572 321.333 749.712 334.581C754.68 347.829 758.82 360.249 762.132 371.841C766.272 383.433 769.584 393.369 772.068 401.649C774.552 409.929 776.622 418.623 778.278 427.731C780.762 436.011 782.418 445.947 783.246 457.539C784.074 473.271 781.176 487.761 774.552 501.009C767.928 514.257 757.992 524.607 744.744 532.059C733.98 536.199 722.388 538.269 709.968 538.269L497.586 541.995C348.546 542.823 274.026 544.479 274.026 546.963H270.3C281.064 589.191 303.42 622.311 337.368 646.323C372.144 670.335 419.34 684.411 478.956 688.551C511.248 690.207 538.158 688.551 559.686 683.583C583.698 676.959 601.086 671.163 611.85 666.195C622.614 660.399 635.862 652.947 651.594 643.839C667.326 638.043 683.058 638.871 698.79 646.323C714.522 653.775 725.286 665.367 731.082 681.099C736.878 696.831 736.05 712.149 728.598 727.053C721.974 741.957 711.21 753.549 696.306 761.829C683.058 769.281 669.396 775.905 655.32 781.701C641.244 786.669 620.544 792.879 593.22 800.331C565.896 807.783 525.324 811.095 471.504 810.267ZM272.784 425.247C320.808 422.763 445.422 420.279 646.626 417.795C639.174 392.955 627.168 369.357 610.608 347.001C577.488 308.913 536.502 286.971 487.65 281.175C436.314 274.551 391.188 285.729 352.272 314.709C313.356 342.861 286.86 379.707 272.784 425.247Z" fill="#FFD500"/>
</g>
<path d="M463.223 63.5612L544.795 24.8822L547.018 230.918L463.223 231.906L463.223 63.5612Z" fill="#FFD500"/>
<path d="M328.993 122.102L410.551 81.6761L412.788 289.04L328.993 290.028L328.993 173.325L328.993 122.102Z" fill="#FFD500"/>
<path d="M325 713.734L408.795 712.746L410.66 885.581L325 840.805L325 713.734Z" fill="#FFD500"/>
</g>
<defs>
<filter id="filter0_d" x="951.22" y="228.608" width="1507.62" height="432.392" filterUnits="userSpaceOnUse" color-interpolation-filters="sRGB">
<feFlood flood-opacity="0" result="BackgroundImageFix"/>
<feColorMatrix in="SourceAlpha" type="matrix" values="0 0 0 0 0 0 0 0 0 0 0 0 0 0 0 0 0 0 127 0"/>
<feOffset dy="13"/>
<feGaussianBlur stdDeviation="8"/>
<feColorMatrix type="matrix" values="0 0 0 0 0 0 0 0 0 0 0 0 0 0 0 0 0 0 0.25 0"/>
<feBlend mode="normal" in2="BackgroundImageFix" result="effect1_dropShadow"/>
<feBlend mode="normal" in="SourceGraphic" in2="effect1_dropShadow" result="shape"/>
</filter>
<filter id="filter1_d" x="118.68" y="148.782" width="679.704" height="684.609" filterUnits="userSpaceOnUse" color-interpolation-filters="sRGB">
<feFlood flood-opacity="0" result="BackgroundImageFix"/>
<feColorMatrix in="SourceAlpha" type="matrix" values="0 0 0 0 0 0 0 0 0 0 0 0 0 0 0 0 0 0 127 0"/>
<feOffset dy="8"/>
<feGaussianBlur stdDeviation="7.5"/>
<feColorMatrix type="matrix" values="0 0 0 0 0 0 0 0 0 0 0 0 0 0 0 0 0 0 0.25 0"/>
<feBlend mode="normal" in2="BackgroundImageFix" result="effect1_dropShadow"/>
<feBlend mode="normal" in="SourceGraphic" in2="effect1_dropShadow" result="shape"/>
</filter>
<clipPath id="clip0">
<rect width="2582" height="994.163" fill="white" transform="translate(0 0.836914)"/>
</clipPath>
</defs>
</svg>
